<svg xmlns="http://www.w3.org/2000/svg" width="512" height="512" viewBox="0 0 512 512">
  <defs>
    <linearGradient id="bg" x1="0" y1="0" x2="1" y2="1">
      <stop offset="0" stop-color="#2563eb" />
      <stop offset="0.5" stop-color="#3b82f6" />
      <stop offset="1" stop-color="#06b6d4" />
    </linearGradient>
  </defs>

  <rect x="0" y="0" width="512" height="512" rx="128" fill="url(#bg)" />
  <rect
    x="2.6667"
    y="2.6667"
    width="506.6666"
    height="506.6666"
    rx="125.3333"
    fill="none"
    stroke="#ffffff"
    stroke-opacity="0.2"
    stroke-width="5.3333"
  />

  <!-- lucide Scale icon (strokeWidth=1.5, size=48 on 96) -->
  <g
    stroke="#ffffff"
    stroke-width="1.5"
    stroke-linecap="round"
    stroke-linejoin="round"
    fill="none"
    transform="translate(128 128) scale(10.6666667)"
  >
    <path d="m16 16 3-8 3 8c-.87.65-1.92 1-3 1s-2.13-.35-3-1Z" />
    <path d="m2 16 3-8 3 8c-.87.65-1.92 1-3 1s-2.13-.35-3-1Z" />
    <path d="M7 21h10" />
    <path d="M12 3v18" />
    <path d="M3 7h2c2 0 5-1 7-2 2 1 5 2 7 2h2" />
  </g>
</svg>
